<svg width="60" height="60" viewBox="0 0 60 60" fill="none" xmlns="http://www.w3.org/2000/svg">
<g clip-path="url(#clip0_789_1220)">
<path d="M1.39386 60C1.05695 60 0.729188 59.8668 0.486115 59.621C0.16568 59.2969 0.0420843 58.8263 0.162476 58.3864L4.06308 44.1426C1.63464 39.7513 0.354279 34.7836 0.35611 29.7409C0.362977 13.3415 13.7086 0 30.1066 0C38.0603 0.00320435 45.5337 3.10135 51.1509 8.72269C56.7672 14.3445 59.859 21.8175 59.8567 29.7647C59.8494 46.1646 46.5037 59.507 30.1066 59.507C30.1066 59.507 30.0943 59.507 30.0938 59.507C25.3042 59.5052 20.5558 58.3379 16.3279 56.1269L1.7175 59.9583C1.61038 59.9863 1.50144 60 1.39386 60Z" fill="#E5E5E5"/>
<path d="M1.39404 58.7234L5.43335 43.9729C2.94174 39.6558 1.63116 34.7586 1.633 29.7415C1.6394 14.0462 14.4119 1.27686 30.1068 1.27686C37.7231 1.28006 44.872 4.24454 50.248 9.62509C55.6235 15.0056 58.5829 22.1577 58.5802 29.7644C58.5733 45.4593 45.799 58.2304 30.1068 58.2304C30.1059 58.2304 30.1073 58.2304 30.1068 58.2304H30.0945C25.3291 58.2286 20.6471 57.0334 16.4883 54.7652L1.39404 58.7234ZM17.1873 49.6121L18.0521 50.1244C21.6849 52.2804 25.8501 53.4207 30.0977 53.423H30.1068C43.1503 53.423 53.7668 42.8084 53.7723 29.7626C53.7746 23.4404 51.3155 17.4954 46.8472 13.0235C42.3785 8.55164 36.4372 6.08749 30.1155 6.08475C17.0615 6.08475 6.44547 16.698 6.44043 29.7433C6.4386 34.2139 7.68921 38.5672 10.0586 42.3346L10.6216 43.23L8.23029 51.9604L17.1873 49.6121Z" fill="white"/>
<path d="M2.38379 57.7296L6.28348 43.489C3.87747 39.3215 2.61267 34.5933 2.61404 29.7506C2.62 14.5986 14.9508 2.27148 30.1014 2.27148C37.4549 2.27469 44.3566 5.13663 49.5453 10.3309C54.7355 15.5251 57.5919 22.4296 57.5892 29.7721C57.5828 44.9245 45.2515 57.253 30.1028 57.253C30.1014 57.253 30.1032 57.253 30.1028 57.253H30.0904C25.4903 57.2512 20.9699 56.0967 16.9553 53.9086L2.38379 57.7296Z" fill="#64B161"/>
<path d="M1.39404 58.7234L5.43335 43.9729C2.94174 39.6558 1.63116 34.7586 1.633 29.7415C1.6394 14.0462 14.4119 1.27686 30.1068 1.27686C37.7231 1.28006 44.872 4.24454 50.248 9.62509C55.6235 15.0056 58.5829 22.1577 58.5802 29.7644C58.5733 45.4593 45.799 58.2304 30.1068 58.2304C30.1059 58.2304 30.1073 58.2304 30.1068 58.2304H30.0945C25.3291 58.2286 20.6471 57.0334 16.4883 54.7652L1.39404 58.7234ZM17.1873 49.6121L18.0521 50.1244C21.6849 52.2804 25.8501 53.4207 30.0977 53.423H30.1068C43.1503 53.423 53.7668 42.8084 53.7723 29.7626C53.7746 23.4404 51.3155 17.4954 46.8472 13.0235C42.3785 8.55164 36.4372 6.08749 30.1155 6.08475C17.0615 6.08475 6.44547 16.698 6.44043 29.7433C6.4386 34.2139 7.68921 38.5672 10.0586 42.3346L10.6216 43.23L8.23029 51.9604L17.1873 49.6121Z" fill="white"/>
<path fill-rule="evenodd" clip-rule="evenodd" d="M22.9903 17.8413C22.4575 16.6566 21.8963 16.6328 21.3891 16.6122C20.9743 16.5943 20.4996 16.5952 20.0258 16.5952C19.5516 16.5952 18.7807 16.7738 18.1289 17.4856C17.4766 18.1974 15.6382 19.9186 15.6382 23.4191C15.6382 26.9201 18.1879 30.3025 18.5436 30.7777C18.8993 31.2524 23.4655 38.6654 30.6968 41.5173C36.7068 43.8876 37.9294 43.4161 39.2341 43.2975C40.5387 43.1789 43.4432 41.5763 44.036 39.9151C44.6293 38.2539 44.6293 36.8302 44.4512 36.5322C44.2731 36.236 43.7989 36.058 43.0875 35.7023C42.3762 35.3466 38.8784 33.6249 38.2261 33.3878C37.5738 33.1502 37.0995 33.0321 36.6253 33.7444C36.1506 34.4558 34.7883 36.058 34.3731 36.5322C33.9579 37.0078 33.5427 37.0673 32.8313 36.7112C32.12 36.3546 29.8284 35.6039 27.1102 33.18C24.9953 31.2945 23.5671 28.9654 23.1519 28.2531C22.7372 27.5417 23.1451 27.1902 23.4646 26.8015C24.04 26.1016 25.0054 24.8432 25.2425 24.369C25.4796 23.8938 25.3611 23.4786 25.1835 23.1225C25.0054 22.7668 23.6225 19.2484 22.9903 17.8413Z" fill="white"/>
</g>
<defs>
<clipPath id="clip0_789_1220">
<rect width="60" height="60" fill="white"/>
</clipPath>
</defs>
</svg>
